<?xml version="1.0" standalone="no"?><!DOCTYPE svg PUBLIC "-//W3C//DTD SVG 1.1//EN" "http://www.w3.org/Graphics/SVG/1.1/DTD/svg11.dtd"><svg t="1514046641208" class="icon" style="" viewBox="0 0 1024 1024" version="1.1" xmlns="http://www.w3.org/2000/svg" p-id="4085" xmlns:xlink="http://www.w3.org/1999/xlink" width="200" height="200"><defs><style type="text/css"></style></defs><path d="M896 102.4l-819.2 0c-42.3424 0-76.8 34.4576-76.8 76.8l0 512c0 42.3424 34.4576 76.8 76.8 76.8l384 0 0 102.4-179.2 0c-14.1312 0-25.6 11.4688-25.6 25.6s11.4688 25.6 25.6 25.6l409.6 0c14.1312 0 25.6-11.4688 25.6-25.6s-11.4688-25.6-25.6-25.6l-179.2 0 0-102.4 384 0c42.3424 0 76.8-34.4576 76.8-76.8l0-512c0-42.3424-34.4576-76.8-76.8-76.8zM921.6 691.2c0 14.1312-11.4688 25.6-25.6 25.6l-819.2 0c-14.1312 0-25.6-11.4688-25.6-25.6l0-512c0-14.1312 11.4688-25.6 25.6-25.6l819.2 0c14.1312 0 25.6 11.4688 25.6 25.6l0 512z" p-id="4086" fill="#515594"></path></svg>