<?xml version="1.0" standalone="no"?><!DOCTYPE svg PUBLIC "-//W3C//DTD SVG 1.1//EN" "http://www.w3.org/Graphics/SVG/1.1/DTD/svg11.dtd"><svg t="1514046582402" class="icon" style="" viewBox="0 0 1024 1024" version="1.1" xmlns="http://www.w3.org/2000/svg" p-id="3116" xmlns:xlink="http://www.w3.org/1999/xlink" width="200" height="200"><defs><style type="text/css"></style></defs><path d="M898.967684 732.690628l-23.464091-23.467089-220.605829-220.602432L859.844409 284.166327c82.806657-82.249435 41.25383-119.983851 19.290921-142.252153-21.91714-22.222933-64.049375-58.516126-137.866127 22.033461L535.502913 369.22106l-186.380634-186.378635-21.926134-21.927533-69.609605-69.606207-166.376197 166.376197 82.62518 82.624181 8.910958 8.90836 186.18037 186.17937L156.787282 747.032904c-1.562341 1.537957-2.885444 3.251795-4.000288 5.092547l-0.514051-0.520647-0.868011 3.077913c-1.351084 2.882046-2.229888 6.044902-2.651602 9.391632L112.438351 892.693746c0 0 1.056284 10.531859 3.184241 12.577472 2.113567 2.027625 12.686399 2.707165 12.686399 2.707165l129.775212-32.917682c3.14087-0.340769 6.12085-1.088262 8.879979-2.252473l2.658597-0.674543-0.38414-0.395732c2.237083-1.188194 4.293489-2.679184 6.128245-4.487957l212.955016-212.44836L766.159128 932.62867l0.189871-0.190871 0.254827 0.251829 166.181929-166.181929L898.967684 732.690628zM149.001961 259.653147l110.556243-110.556243 21.502821 21.502821-34.85237 34.854369c-2.814092 2.814492-0.747493 9.441998 4.61587 14.804962l8.321358 8.322757c5.363963 5.362364 11.99087 7.428963 14.804962 4.614871l34.85237-34.85177 47.614118 47.61112-62.240601 62.2412c-4.076236 4.076236-3.029946 11.72545 2.33042 17.089813l8.323756 8.321358c5.363763 5.363963 13.014176 6.406656 17.087415 2.333818l62.2412-62.2412 47.613518 47.61112-40.056242 40.059839c-2.81649 2.811094-0.748493 9.440599 4.609875 14.804363l8.327754 8.321358c5.362364 5.364363 11.989871 7.430362 14.802364 4.614871l40.060239-40.055642 48.042827 48.040229L396.871905 507.520893 149.001961 259.653147zM257.858956 838.686563c-8.956328 8.834011-13.315372 4.412009-36.018979-18.603387l-17.955226-18.205657c-22.703007-23.015396-27.060053-27.436398-18.103126-36.269409L764.484264 186.685819c8.955928-8.831412 13.308977-4.412408 36.013583 18.603387l17.955826 18.205657c22.702608 23.015795 27.061652 27.434399 18.104725 36.26781L257.858956 838.686563zM764.444291 875.090681 516.270153 626.91974l110.688753-110.419336 51.431929 51.432529-67.446072 67.445072c-4.075237 4.076236-3.029946 11.72605 2.334417 17.084417l8.322357 8.326355c5.361365 5.364363 13.012178 6.405657 17.088414 2.334417l67.445072-67.446072 47.611519 47.611519-36.411113 36.411313c-2.811094 2.812093-0.748493 9.444597 4.610874 14.80796l8.327354 8.322357c5.362364 5.362364 11.988872 7.431961 14.800965 4.614871l36.41631-36.412312 44.190039 44.184843-69.52766 69.533656c-4.081233 4.07124-3.035942 11.720054 2.328421 17.084417l8.321358 8.326355c5.36836 5.358367 13.018174 6.403658 17.089413 2.329421l69.52766-69.52866 21.577171 21.575372L764.444291 875.090681z" p-id="3117" fill="#515594"></path></svg>