<?xml version="1.0" standalone="no"?><!DOCTYPE svg PUBLIC "-//W3C//DTD SVG 1.1//EN" "http://www.w3.org/Graphics/SVG/1.1/DTD/svg11.dtd"><svg t="1514043817863" class="icon" style="" viewBox="0 0 1024 1024" version="1.1" xmlns="http://www.w3.org/2000/svg" p-id="5888" xmlns:xlink="http://www.w3.org/1999/xlink" width="200" height="200"><defs><style type="text/css"></style></defs><path d="M652.204758 709.96446c134.048744-55.307804 228.621936-187.39503 228.621936-341.129009C880.826694 165.433033 715.358634 0 511.921189 0S143.173306 165.433033 143.173306 368.835451C143.173306 521.903915 236.905848 653.518275 369.991346 709.298945 265.435427 761.121552 193.437206 868.970018 193.437206 993.35128a30.64872 30.64872 0 1 0 61.29744 0c0-140.949084 114.678753-255.697891 255.697891-255.697891s255.697891 114.731294 255.697891 255.697891a30.631206 30.631206 0 1 0 61.29744 0c0-123.803315-71.385247-231.178915-175.135542-283.38682zM204.470745 368.835451C204.470745 199.216679 342.407498 61.29744 511.921189 61.29744s307.660606 137.919239 307.660606 307.538011-138.006807 307.573039-307.643092 307.573039S204.470745 538.43671 204.470745 368.835451z" fill="#ffffff" p-id="5889"></path><path d="M666.390737 502.533924a30.631206 30.631206 0 0 0-52.540663-31.43683 120.458226 120.458226 0 0 1-104.048025 59.686193c-42.838154 0-81.683217-22.312268-104.048026-59.686193a30.631206 30.631206 0 0 0-52.540662 31.43683c33.468402 56.043373 91.981187 89.529289 156.623715 89.529289s123.19034-33.450889 156.658742-89.529289z" fill="#ffffff" p-id="5890"></path></svg>